<svg width="800" height="600" viewBox="0 0 800 600" fill="none" xmlns="http://www.w3.org/2000/svg">
  <rect width="800" height="600" fill="#ECE7DE"/>
  <rect x="180" y="110" width="440" height="380" rx="24" fill="#FFFFFF" stroke="#18181B"/>
  <path d="M270 210C270 165 330 165 330 210V390C330 422 270 422 270 390V210Z" fill="#111827"/>
  <path d="M370 190C370 145 430 145 430 190V410C430 442 370 442 370 410V190Z" fill="#2F2A2C"/>
  <path d="M470 210C470 165 530 165 530 210V390C530 422 470 422 470 390V210Z" fill="#111827"/>
  <circle cx="300" cy="245" r="8" fill="#E7D8A6"/>
  <path d="M400 235L411 258L436 262L418 280L422 305L400 293L378 305L382 280L364 262L389 258L400 235Z" fill="#E7D8A6"/>
  <circle cx="500" cy="260" r="8" fill="#E7D8A6"/>
  <text x="400" y="540" text-anchor="middle" fill="#18181B" font-family="Arial" font-size="24">Press-on Nails</text>
</svg>
